# xmcd CD database file
#
# Track frame offsets:
#	150
#	14857
#	33176
#	45847
#	63018
#	81027
#	94392
#	109787
#	122896
#	136469
#	153377
#	169095
#
# Disc length: 2460 seconds
#
# Revision: 0
# Processed by: cddbd v1.5.2PL0 Copyright (c) Steve Scherf et al.
# Submitted via: CDex 1.70beta2
#
DISCID=96099a0c
DTITLE=Vail, Randy - Cdn. - NB - Home
DYEAR=2005
DGENRE=Country
TTITLE0=Early Beleisle
TTITLE1=A Thousand Questions
TTITLE2=The Spotted Pony
TTITLE3=Memories Track
TTITLE4=The Guardian
TTITLE5=The Model T
TTITLE6=Stroll With Me
TTITLE7=The Little One
TTITLE8=I Wish
TTITLE9=Back Then
TTITLE10=Play Old Liberty
TTITLE11=Walk With Jesus
EXTD=YEAR: 2005
EXTT0=
EXTT1=
EXTT2=
EXTT3=
EXTT4=
EXTT5=
EXTT6=
EXTT7=
EXTT8=
EXTT9=
EXTT10=
EXTT11=
PLAYORDER=
